<svg width="16" height="19" viewBox="0 0 16 19" fill="none" xmlns="http://www.w3.org/2000/svg">
<path d="M4.77778 2.88885H2.88889C2.38792 2.88885 1.90748 3.08786 1.55324 3.4421C1.19901 3.79633 1 4.27678 1 4.77774V16.1111C1 16.612 1.19901 17.0925 1.55324 17.4467C1.90748 17.801 2.38792 18 2.88889 18H12.3333C12.8343 18 13.3147 17.801 13.669 17.4467C14.0232 17.0925 14.2222 16.612 14.2222 16.1111V4.77774C14.2222 4.27678 14.0232 3.79633 13.669 3.4421C13.3147 3.08786 12.8343 2.88885 12.3333 2.88885H10.4444" stroke="#C4C4C4" stroke-width="1.61905" stroke-linecap="round" stroke-linejoin="round"/>
<path d="M8.55561 1H6.66672C5.62352 1 4.77783 1.84568 4.77783 2.88889C4.77783 3.93209 5.62352 4.77778 6.66672 4.77778H8.55561C9.59881 4.77778 10.4445 3.93209 10.4445 2.88889C10.4445 1.84568 9.59881 1 8.55561 1Z" stroke="#C4C4C4" stroke-width="1.61905" stroke-linecap="round" stroke-linejoin="round"/>
<path d="M8.55561 13.2778H10.4445M4.77783 9.5H4.78728H4.77783ZM8.55561 9.5H10.4445H8.55561ZM4.77783 13.2778H4.78728H4.77783Z" stroke="#C4C4C4" stroke-width="1.61905" stroke-linecap="round" stroke-linejoin="round"/>
</svg>
