<svg width="47" height="47" viewBox="0 0 47 47" fill="none" xmlns="http://www.w3.org/2000/svg">
<path d="M23.1328 13.9885C18.0302 13.9885 13.9121 18.1066 13.9121 23.2092C13.9121 28.3119 18.0302 32.43 23.1328 32.43C28.2355 32.43 32.3536 28.3119 32.3536 23.2092C32.3536 18.1066 28.2355 13.9885 23.1328 13.9885ZM23.1328 29.202C19.833 29.202 17.14 26.5091 17.14 23.2092C17.14 19.9094 19.833 17.2164 23.1328 17.2164C26.4327 17.2164 29.1256 19.9094 29.1256 23.2092C29.1256 26.5091 26.4327 29.202 23.1328 29.202ZM32.7312 11.4619C31.5398 11.4619 30.5777 12.424 30.5777 13.6154C30.5777 14.8067 31.5398 15.7688 32.7312 15.7688C33.9226 15.7688 34.8847 14.8112 34.8847 13.6154C34.885 13.3325 34.8295 13.0523 34.7215 12.7909C34.6134 12.5294 34.4547 12.2919 34.2547 12.0919C34.0547 11.8918 33.8171 11.7332 33.5557 11.6251C33.2943 11.517 33.0141 11.4616 32.7312 11.4619Z" fill="#404040"/>
<path d="M41.1066 23.2095C41.1066 20.7279 41.1291 18.2687 40.9897 15.7916C40.8504 12.9143 40.194 10.3607 38.09 8.25674C35.9815 6.14824 33.4324 5.49636 30.5552 5.357C28.0735 5.21763 25.6144 5.24011 23.1372 5.24011C20.6556 5.24011 18.1964 5.21763 15.7193 5.357C12.842 5.49636 10.2885 6.15274 8.18447 8.25674C6.07598 10.3652 5.4241 12.9143 5.28473 15.7916C5.14536 18.2732 5.16784 20.7324 5.16784 23.2095C5.16784 25.6866 5.14536 28.1503 5.28473 30.6274C5.4241 33.5047 6.08047 36.0583 8.18447 38.1623C10.293 40.2708 12.842 40.9226 15.7193 41.062C18.2009 41.2014 20.6601 41.1789 23.1372 41.1789C25.6189 41.1789 28.078 41.2014 30.5552 41.062C33.4324 40.9226 35.986 40.2663 38.09 38.1623C40.1985 36.0538 40.8504 33.5047 40.9897 30.6274C41.1336 28.1503 41.1066 25.6911 41.1066 23.2095ZM37.1504 33.8104C36.8222 34.6286 36.4266 35.2401 35.7927 35.8695C35.1588 36.5033 34.5519 36.899 33.7337 37.2272C31.3689 38.1668 25.7537 37.9555 23.1327 37.9555C20.5117 37.9555 14.8921 38.1668 12.5273 37.2317C11.7091 36.9035 11.0977 36.5078 10.4683 35.8739C9.8344 35.2401 9.43878 34.6331 9.11059 33.8149C8.17548 31.4457 8.38678 25.8305 8.38678 23.2095C8.38678 20.5885 8.17548 14.9688 9.11059 12.6041C9.43878 11.7859 9.8344 11.1745 10.4683 10.5451C11.1022 9.91566 11.7091 9.51554 12.5273 9.18735C14.8921 8.25224 20.5117 8.46354 23.1327 8.46354C25.7537 8.46354 31.3734 8.25224 33.7381 9.18735C34.5564 9.51554 35.1678 9.91116 35.7972 10.5451C36.4311 11.179 36.8267 11.7859 37.1549 12.6041C38.09 14.9688 37.8787 20.5885 37.8787 23.2095C37.8787 25.8305 38.09 31.4457 37.1504 33.8104Z" fill="#404040"/>
</svg>
