<svg width="40" height="40" viewBox="0 0 40 40" fill="none" xmlns="http://www.w3.org/2000/svg">
<path d="M19.6584 0.863281C8.86577 0.863281 0.114746 9.61431 0.114746 20.4069C0.114746 31.1996 8.86577 39.9506 19.6584 39.9506C30.451 39.9506 39.2021 31.1996 39.2021 20.4069C39.2021 9.61431 30.451 0.863281 19.6584 0.863281ZM29.0507 15.5952C29.0638 15.8002 29.0638 16.014 29.0638 16.2234C29.0638 22.6274 24.1866 30.0043 15.2742 30.0043C12.5258 30.0043 9.97819 29.206 7.83188 27.8318C8.22449 27.8754 8.59966 27.8929 9.00101 27.8929C11.2695 27.8929 13.3547 27.1251 15.0168 25.8251C12.8879 25.7815 11.0993 24.3855 10.4886 22.466C11.2346 22.5751 11.9064 22.5751 12.6742 22.3788C11.578 22.1561 10.5927 21.5607 9.88578 20.6939C9.17881 19.8271 8.79373 18.7423 8.79597 17.6237V17.5626C9.43725 17.9247 10.1919 18.1472 10.9815 18.1777C10.3178 17.7354 9.77341 17.136 9.39673 16.4329C9.02004 15.7298 8.82268 14.9445 8.82215 14.1469C8.82215 13.2438 9.05772 12.4193 9.48087 11.7039C10.6976 13.2017 12.2158 14.4267 13.9369 15.2993C15.6581 16.1719 17.5435 16.6725 19.4708 16.7687C18.7859 13.4751 21.2463 10.8096 24.2041 10.8096C25.6 10.8096 26.8564 11.3942 27.742 12.3365C28.837 12.1314 29.8839 11.7214 30.8175 11.1717C30.4554 12.2928 29.6963 13.2395 28.6886 13.8371C29.6658 13.7324 30.6081 13.462 31.4806 13.0824C30.8219 14.0509 29.9974 14.9103 29.0507 15.5952Z" fill="#404040"/>
</svg>
